<!DOCTYPE svg PUBLIC "-//W3C//DTD SVG 1.1//EN" "http://www.w3.org/Graphics/SVG/1.1/DTD/svg11.dtd">
<!-- Uploaded to: SVG Repo, www.svgrepo.com, Transformed by: SVG Repo Mixer Tools -->
<svg fill="#033a3b" height="800px" width="800px" version="1.1" id="Layer_1" xmlns="http://www.w3.org/2000/svg" xmlns:xlink="http://www.w3.org/1999/xlink" viewBox="0 0 512 512" xml:space="preserve" stroke="#033a3b">
<g id="SVGRepo_bgCarrier" stroke-width="0"/>
<g id="SVGRepo_tracerCarrier" stroke-linecap="round" stroke-linejoin="round"/>
<g id="SVGRepo_iconCarrier"> <g> <g> <path d="M256,201.143c-33.709,0-54.46,22.231-67.049,51.462v33.871h50.976c4.297-3.781,9.913-6.095,16.073-6.095 s11.776,2.314,16.073,6.095h50.974v-33.872C310.459,223.372,289.709,201.143,256,201.143z"/> </g> </g> <g> <g> <path d="M85.333,201.143c-45.947,0-67.838,41.283-77.768,85.333H69.26c4.297-3.781,9.913-6.095,16.073-6.095 s11.776,2.314,16.073,6.095h50.974v-33.874C139.792,223.371,119.041,201.143,85.333,201.143z"/> </g> </g> <g> <g> <path d="M426.668,201.143c-33.709,0-54.458,22.229-67.048,51.461v33.872h50.974c4.296-3.781,9.912-6.095,16.072-6.095 s11.776,2.314,16.073,6.095h61.695C494.504,242.426,472.614,201.143,426.668,201.143z"/> </g> </g> <g> <g> <path d="M463.238,128H48.762c-20.197,0-36.571,16.374-36.571,36.571v30.965c25.185-25.962,54.411-30.965,73.143-30.965 c21.855,0,57.994,6.804,85.333,45.768c27.34-38.964,63.478-45.768,85.333-45.768c21.855,0,57.994,6.804,85.333,45.768 c27.34-38.964,63.478-45.768,85.333-45.768c18.732,0,47.957,5.003,73.143,30.965v-30.965C499.81,144.374,483.435,128,463.238,128z "/> </g> </g> <g> <g> <path d="M101.406,323.048c-4.296,3.781-9.913,6.095-16.073,6.095s-11.776-2.314-16.073-6.095H1.798 C0.478,336.416,0,349.005,0,359.619C0,373.096,10.904,384,24.381,384h121.905c2.109,0,4.144-0.295,6.094-0.797v-60.155H101.406z"/> </g> </g> <g> <g> <path d="M510.202,323.048h-67.463c-4.296,3.781-9.913,6.095-16.073,6.095s-11.776-2.314-16.073-6.095h-50.973v60.155 c1.952,0.502,3.986,0.797,6.095,0.797h121.905C501.096,384,512,373.096,512,359.619C512,349.005,511.522,336.416,510.202,323.048z "/> </g> </g> <g> <g> <path d="M272.073,323.048c-4.296,3.781-9.913,6.095-16.073,6.095s-11.776-2.314-16.073-6.095h-50.976v60.155 c1.952,0.502,3.986,0.797,6.096,0.797h121.905c2.109,0,4.144-0.295,6.095-0.797v-60.155H272.073z"/> </g> </g> </g>
</svg>